<svg width="144" height="42" viewBox="0 0 144 42" fill="none" xmlns="http://www.w3.org/2000/svg">
<path d="M24.65 35.1L0.25 24.3V16.55L24.65 5.75V14.5L10.25 20.4L24.65 26.35V35.1ZM35.8043 41.2C33.371 41.2 31.621 40.6167 30.5543 39.45C29.521 38.3167 29.0043 36.6 29.0043 34.3V27.7C29.0043 26.4667 28.7876 25.55 28.3543 24.95C27.921 24.3167 27.1876 23.9333 26.1543 23.8V18.4C27.2876 18.2333 28.0376 17.8167 28.4043 17.15C28.8043 16.45 29.0043 15.4 29.0043 14V7.9C29.0043 5.6 29.521 3.86667 30.5543 2.7C31.621 1.53333 33.371 0.949998 35.8043 0.949998H41.5543V8.15H40.3043C39.6043 8.15 39.1043 8.33333 38.8043 8.7C38.5376 9.03333 38.4043 9.58333 38.4043 10.35V16.35C38.4043 18.55 37.6043 20.1333 36.0043 21.1C37.6043 22.1333 38.4043 23.7167 38.4043 25.85V31.85C38.4043 32.5833 38.5376 33.1333 38.8043 33.5C39.1043 33.8333 39.6043 34 40.3043 34H41.5543V41.2H35.8043ZM44.5605 36V3.8H61.3105C63.9439 3.8 66.0939 4.28333 67.7605 5.25C69.4605 6.21667 70.7272 7.56667 71.5605 9.3C72.3939 11 72.8105 12.9833 72.8105 15.25C72.8105 17.4167 72.2605 19.3333 71.1605 21C70.0939 22.6333 68.6605 23.8833 66.8605 24.75C67.2272 25.05 67.5439 25.4167 67.8105 25.85C68.0772 26.25 68.3772 26.8167 68.7105 27.55L72.4105 36H62.6105L59.2105 28.25C58.9439 27.65 58.6105 27.2333 58.2105 27C57.8439 26.7333 57.3105 26.6 56.6105 26.6H53.9605V36H44.5605ZM53.9605 19.4H58.9105C60.2772 19.4 61.3272 19.05 62.0605 18.35C62.8272 17.6167 63.2105 16.5833 63.2105 15.25C63.2105 12.4167 61.8772 11 59.2105 11H53.9605V19.4ZM86.8488 36.5C84.6822 36.5 82.6322 36.3333 80.6988 36C78.7655 35.6333 77.1155 35.1333 75.7488 34.5V26.75C77.2488 27.45 78.9155 28.0167 80.7488 28.45C82.5822 28.8833 84.2988 29.1 85.8988 29.1C87.5655 29.1 88.8155 28.9667 89.6488 28.7C90.5155 28.4 90.9488 27.75 90.9488 26.75C90.9488 26.05 90.6988 25.5 90.1988 25.1C89.7322 24.7 88.9822 24.3333 87.9488 24C86.9488 23.6667 85.6322 23.25 83.9988 22.75C81.8322 22.05 80.1155 21.2833 78.8488 20.45C77.5822 19.6167 76.6655 18.6 76.0988 17.4C75.5655 16.2 75.2988 14.7333 75.2988 13C75.2988 9.83333 76.4155 7.43333 78.6488 5.8C80.9155 4.13333 84.2655 3.3 88.6988 3.3C90.4655 3.3 92.2822 3.45 94.1488 3.75C96.0488 4.05 97.5822 4.38333 98.7488 4.75V12.55C97.1822 11.9167 95.6822 11.4667 94.2488 11.2C92.8155 10.9333 91.4655 10.8 90.1988 10.8C88.7322 10.8 87.4822 10.9167 86.4488 11.15C85.4155 11.3833 84.8988 11.9833 84.8988 12.95C84.8988 13.7833 85.3322 14.4 86.1988 14.8C87.0988 15.1667 88.6822 15.65 90.9488 16.25C93.5822 16.95 95.5822 17.8 96.9488 18.8C98.3488 19.8 99.2988 20.9667 99.7988 22.3C100.299 23.6 100.549 25.0833 100.549 26.75C100.549 29.6833 99.4155 32.05 97.1488 33.85C94.8822 35.6167 91.4488 36.5 86.8488 36.5ZM102.533 41.2V34H103.783C104.483 34 104.967 33.8333 105.233 33.5C105.533 33.1333 105.683 32.5833 105.683 31.85V25.85C105.683 23.7167 106.483 22.1333 108.083 21.1C106.483 20.1333 105.683 18.55 105.683 16.35V10.35C105.683 9.58333 105.533 9.03333 105.233 8.7C104.967 8.33333 104.483 8.15 103.783 8.15H102.533V0.949998H108.283C110.717 0.949998 112.45 1.53333 113.483 2.7C114.55 3.86667 115.083 5.6 115.083 7.9V14C115.083 15.4 115.267 16.45 115.633 17.15C116.033 17.8167 116.8 18.2333 117.933 18.4V23.8C116.9 23.9333 116.167 24.3167 115.733 24.95C115.3 25.55 115.083 26.4667 115.083 27.7V34.3C115.083 36.6 114.55 38.3167 113.483 39.45C112.45 40.6167 110.717 41.2 108.283 41.2H102.533ZM119.439 35.1V26.35L133.839 20.4L119.439 14.5V5.75L143.839 16.55V24.3L119.439 35.1Z" fill="url(#paint0_linear_2_9)"/>
<defs>
<linearGradient id="paint0_linear_2_9" x1="149.75" y1="18" x2="4.25" y2="18" gradientUnits="userSpaceOnUse">
<stop stop-color="#34D399"/>
<stop offset="1" stop-color="#34F264"/>
</linearGradient>
</defs>
</svg>
